<svg version="1.2" baseProfile="tiny-ps" xmlns="http://www.w3.org/2000/svg" viewBox="0 0 135 129" width="135" height="129">
	<title>banner-svg</title>
	<style>
		tspan { white-space:pre }
		.shp0 { fill: #ac752c } 
		.shp1 { fill: #7d551f } 
		.shp2 { fill: #ffb300 } 
		.shp3 { fill: #ffd54f } 
	</style>
	<path id="Layer" class="shp0" d="M118.38 17.52L105.43 16.58L106.48 2.35C106.59 0.89 108.8 -0.16 111.48 0.05L114.85 0.31C117.48 0.52 119.53 1.88 119.43 3.35L118.38 17.52Z" />
	<path id="Layer" class="shp1" d="M118.38 17.52L111.9 17.05L113.17 0.1L114.85 0.21C117.48 0.42 119.53 1.78 119.43 3.24L118.37 17.52L118.38 17.52Z" />
	<path id="Layer" class="shp2" d="M121.8 24.48C121.77 26.22 121.68 27.96 121.53 29.7C121.38 31.43 121.16 33.16 120.88 34.88C120.61 36.6 120.27 38.31 119.87 40C119.47 41.7 119 43.38 118.48 45.04C106.38 83.54 65.24 105.04 26.52 93.06C19.62 90.92 13.26 87.88 7.58 84.12C7.16 83.8 3.47 80.93 1.42 77.05C0.37 75.12 -0.21 72.97 0.16 70.83L0.16 70.78C0.21 70.52 0.26 70.31 0.37 70.1C0.47 69.89 0.58 69.68 0.74 69.47C1.79 67.9 4.16 67.12 7.1 66.8C13.52 66.07 22.62 67.59 26.52 67.8L26.57 67.8C27.52 67.9 28.46 67.95 29.41 68L29.57 68C30.62 68.06 31.62 68.11 32.67 68.11L36.35 68.11C37.04 68.11 37.77 68.06 38.46 68C38.88 68 39.25 67.95 39.67 67.9C40.77 67.8 41.88 67.69 42.93 67.53C43.3 67.48 43.62 67.43 43.93 67.38C44.01 67.36 44.1 67.35 44.18 67.34C44.26 67.33 44.35 67.31 44.43 67.3C44.51 67.29 44.6 67.28 44.68 67.26C44.76 67.25 44.85 67.23 44.93 67.22C45.93 67.06 46.98 66.85 47.98 66.64C48.03 66.64 48.14 66.64 48.19 66.59L48.4 66.44C49.88 66.12 51.35 65.76 52.77 65.39C53.11 65.3 53.45 65.2 53.79 65.11C54.13 65.01 54.47 64.91 54.81 64.8C55.14 64.7 55.48 64.59 55.82 64.48C56.15 64.37 56.49 64.25 56.82 64.13C56.98 64.08 57.19 64.03 57.35 63.98L57.56 63.92C57.78 63.85 58 63.77 58.22 63.69C58.44 63.61 58.66 63.53 58.88 63.45C59.1 63.36 59.32 63.28 59.53 63.19C59.75 63.11 59.97 63.02 60.19 62.93C60.29 62.88 60.35 62.88 60.45 62.83L60.77 62.67C61.39 62.42 62.01 62.16 62.63 61.89C63.24 61.62 63.86 61.35 64.47 61.06C65.08 60.78 65.68 60.49 66.28 60.19C66.89 59.89 67.48 59.58 68.08 59.27C68.55 59.06 68.97 58.8 69.45 58.54C69.87 58.27 70.29 58.07 70.71 57.8C70.72 57.79 70.74 57.78 70.76 57.77C70.77 57.76 70.79 57.75 70.81 57.74C70.82 57.73 70.84 57.72 70.86 57.71C70.88 57.71 70.9 57.7 70.92 57.7C71.13 57.54 71.39 57.44 71.6 57.28C71.78 57.18 71.95 57.07 72.12 56.96C72.3 56.86 72.47 56.75 72.64 56.64C72.81 56.53 72.98 56.42 73.15 56.31C73.32 56.2 73.49 56.09 73.66 55.97C74.02 55.76 74.34 55.5 74.71 55.29L76.29 54.2C76.5 54.04 76.65 53.88 76.87 53.78C77.55 53.31 78.23 52.73 78.92 52.21C79.67 51.61 80.42 51.01 81.15 50.38C81.88 49.76 82.6 49.12 83.3 48.47C84.01 47.82 84.7 47.16 85.38 46.48C86.07 45.81 86.73 45.12 87.39 44.41L87.55 44.26C88.55 43.16 89.49 42.06 90.44 40.91C90.86 40.39 91.28 39.86 91.7 39.29C92.02 38.87 92.39 38.4 92.7 37.98C92.75 37.87 92.81 37.82 92.86 37.72C93.54 36.72 94.23 35.78 94.91 34.74C98.49 29.3 101.38 23.23 103.43 16.69C103.64 16.01 103.85 15.28 104.07 14.6L104.33 14.07L104.49 13.76C104.54 13.71 104.54 13.65 104.59 13.6C104.64 13.55 104.64 13.5 104.7 13.44C105.43 12.35 106.75 10.72 108.91 9.89C110.43 9.26 112.43 9.05 114.9 9.68C117.27 10.31 118.8 12.03 119.8 14.18C121.48 17.47 121.74 21.81 121.8 24.48L121.8 24.48Z" />
	<path id="Layer" class="shp3" d="M114.95 9.63L114.95 9.73C115.01 16.22 114.17 22.86 112.38 29.45C112.17 30.34 111.9 31.18 111.64 32.07C99.54 70.57 58.4 92.07 19.68 80.09C13.94 78.31 8.58 75.9 3.63 72.92C3.45 72.82 3.26 72.71 3.08 72.6C2.9 72.49 2.72 72.38 2.54 72.26C2.36 72.15 2.18 72.04 2 71.92C1.82 71.8 1.65 71.68 1.47 71.56C1 71.3 0.58 70.99 0.11 70.67C0.16 70.41 0.21 70.2 0.32 69.99C0.42 69.78 0.53 69.57 0.68 69.36C1.74 67.8 4.1 67.01 7.05 66.7C13.47 65.96 22.57 67.48 26.46 67.69L26.52 67.69C26.75 67.71 26.99 67.74 27.22 67.76C27.46 67.78 27.7 67.8 27.93 67.82C28.17 67.83 28.41 67.85 28.64 67.86C28.88 67.88 29.12 67.89 29.36 67.9L29.52 67.9C30.57 67.95 31.57 68 32.62 68L36.25 68C36.98 67.95 37.67 67.95 38.35 67.9C38.77 67.9 39.14 67.85 39.56 67.8C40.25 67.74 40.93 67.69 41.62 67.59C42.04 67.53 42.41 67.48 42.83 67.43C43.19 67.38 43.51 67.32 43.83 67.27C44.16 67.22 44.5 67.17 44.84 67.11C45.18 67.06 45.52 67 45.86 66.94C46.19 66.88 46.53 66.81 46.87 66.75C47.2 66.68 47.54 66.61 47.88 66.54C47.93 66.54 48.03 66.54 48.09 66.49L48.4 66.44L49.19 66.28C49.49 66.21 49.79 66.14 50.09 66.07C50.39 66 50.69 65.93 50.99 65.86C51.28 65.78 51.58 65.71 51.88 65.63C52.18 65.55 52.47 65.47 52.77 65.39C53.98 65.07 55.14 64.71 56.29 64.34C56.45 64.29 56.66 64.24 56.82 64.19C56.98 64.13 57.19 64.08 57.35 64.03L57.56 63.98C58.08 63.77 58.66 63.56 59.19 63.35C59.5 63.24 59.87 63.09 60.19 62.98C60.29 62.93 60.35 62.93 60.45 62.88L60.77 62.72C61.24 62.51 61.71 62.35 62.19 62.15C62.55 61.99 62.87 61.83 63.24 61.68C63.4 61.62 63.55 61.52 63.71 61.47C64.19 61.26 64.66 61 65.19 60.79C65.61 60.58 66.08 60.37 66.5 60.11C66.63 60.04 66.77 59.98 66.9 59.91C67.03 59.84 67.17 59.77 67.3 59.7C67.43 59.63 67.56 59.56 67.69 59.49C67.82 59.42 67.95 59.34 68.08 59.27C68.55 59.01 68.97 58.8 69.45 58.54C69.87 58.27 70.29 58.07 70.71 57.8C70.72 57.79 70.74 57.78 70.76 57.77C70.77 57.75 70.79 57.74 70.81 57.74C70.82 57.73 70.84 57.72 70.86 57.71C70.88 57.71 70.9 57.7 70.92 57.7C71.13 57.54 71.39 57.44 71.6 57.28C71.78 57.18 71.95 57.07 72.12 56.96C72.3 56.86 72.47 56.75 72.64 56.64C72.81 56.53 72.98 56.42 73.15 56.31C73.32 56.2 73.49 56.09 73.66 55.97C74.02 55.76 74.34 55.5 74.71 55.29L76.29 54.19C76.5 54.04 76.65 53.88 76.87 53.78C77.08 53.62 77.23 53.46 77.44 53.36C77.92 52.99 78.44 52.63 78.92 52.26C79.34 51.95 79.71 51.63 80.13 51.27C80.6 50.9 81.07 50.53 81.49 50.12C81.7 49.91 81.97 49.7 82.18 49.49C82.34 49.33 82.55 49.17 82.7 49.02C83.13 48.65 83.49 48.28 83.91 47.92C84.33 47.55 84.7 47.13 85.12 46.77L86.07 45.83C86.49 45.35 86.97 44.94 87.39 44.47L87.54 44.31C87.96 43.89 88.33 43.42 88.75 42.95C89.02 42.63 89.28 42.37 89.49 42.06C89.81 41.69 90.12 41.33 90.44 40.91C90.7 40.54 90.96 40.23 91.23 39.91L91.7 39.29C92.02 38.87 92.38 38.4 92.7 37.98C92.75 37.87 92.81 37.82 92.86 37.72L93.65 36.62L94.28 35.68L94.91 34.74C95.23 34.26 95.49 33.85 95.75 33.38C95.91 33.11 96.07 32.9 96.17 32.64C96.27 32.49 96.36 32.34 96.45 32.19C96.54 32.04 96.63 31.89 96.72 31.74C96.81 31.59 96.9 31.43 96.98 31.28C97.06 31.12 97.15 30.97 97.22 30.81C97.43 30.39 97.7 29.97 97.91 29.61C98.22 28.98 98.54 28.41 98.86 27.78L99.49 26.52C99.8 25.89 100.07 25.27 100.38 24.59C100.59 24.17 100.75 23.75 100.91 23.33C101.22 22.6 101.49 21.87 101.8 21.13C101.91 20.87 102.01 20.56 102.12 20.3C102.17 20.19 102.22 20.09 102.22 19.93C102.59 18.88 102.96 17.79 103.33 16.69C103.54 16.01 103.75 15.28 103.96 14.6L104.22 14.07L104.38 13.76C104.43 13.71 104.43 13.65 104.48 13.6C104.54 13.55 104.54 13.5 104.59 13.44C105.33 12.35 106.64 10.72 108.8 9.89C110.48 9.21 112.48 9 114.95 9.63L114.95 9.63Z" />
	<path id="Layer" class="shp1" d="M7.05 66.7C3.42 69.21 1.31 72.56 1.37 77C0.32 75.07 -0.26 72.92 0.1 70.78L0.1 70.73C0.16 70.46 0.21 70.26 0.31 70.05C0.42 69.84 0.53 69.63 0.68 69.42C1.74 67.8 4.1 67.01 7.05 66.7L7.05 66.7Z" />
	<path id="Layer" class="shp2" d="M124.69 18.62C125.59 20.12 126.43 21.64 127.22 23.2C128.01 24.75 128.74 26.34 129.4 27.95C130.07 29.56 130.68 31.19 131.23 32.85C131.78 34.51 132.26 36.18 132.68 37.87C142.73 76.95 119.06 116.71 79.76 126.75C72.76 128.53 65.76 129.26 58.92 129C58.4 128.95 53.77 128.43 49.93 126.17C48.03 125.08 46.4 123.56 45.56 121.52L45.56 121.47C45.46 121.26 45.4 121 45.35 120.79C45.3 120.53 45.3 120.32 45.3 120.05C45.35 118.17 46.98 116.24 49.3 114.46C54.4 110.48 62.92 107.03 66.34 105.15C67.18 104.73 68.03 104.31 68.87 103.84C68.92 103.84 68.97 103.79 69.03 103.79C69.92 103.31 70.82 102.79 71.71 102.27L72.5 101.8C72.55 101.76 72.61 101.72 72.66 101.68C72.72 101.65 72.77 101.61 72.83 101.57C72.89 101.54 72.95 101.51 73 101.47C73.06 101.44 73.12 101.41 73.18 101.38C73.39 101.22 73.66 101.12 73.87 100.96C74.18 100.75 74.5 100.59 74.76 100.39C74.91 100.29 75.05 100.19 75.2 100.1C75.35 100 75.49 99.9 75.64 99.8C75.78 99.7 75.93 99.6 76.07 99.49C76.21 99.39 76.36 99.29 76.5 99.18C76.81 98.97 77.18 98.71 77.5 98.45C77.72 98.29 77.94 98.13 78.17 97.97C78.39 97.81 78.61 97.64 78.83 97.48C79.05 97.31 79.27 97.14 79.48 96.98C79.7 96.81 79.91 96.63 80.13 96.46L80.92 95.83C81.18 95.62 81.44 95.36 81.71 95.15C82.49 94.47 83.23 93.79 84.02 93.11L84.18 92.96L84.39 92.75C84.66 92.49 84.93 92.23 85.2 91.97C85.47 91.71 85.73 91.45 86 91.18C86.26 90.92 86.52 90.65 86.78 90.38C87.04 90.11 87.29 89.83 87.54 89.56C88.49 88.51 89.44 87.46 90.33 86.37C90.44 86.21 90.54 86.1 90.7 85.95L90.86 85.79L92.6 83.59C92.65 83.54 92.7 83.44 92.75 83.38C92.81 83.28 92.91 83.17 92.96 83.12C93.36 82.58 93.75 82.04 94.13 81.49C94.51 80.94 94.89 80.39 95.26 79.83C95.62 79.27 95.99 78.71 96.34 78.14C96.69 77.57 97.04 77 97.38 76.43C97.65 76.01 97.91 75.54 98.12 75.07C98.38 74.65 98.59 74.23 98.8 73.76C98.86 73.71 98.86 73.6 98.91 73.55C99.01 73.29 99.17 73.08 99.28 72.82L100.38 70.62C100.54 70.25 100.75 69.89 100.91 69.52C101.17 68.95 101.43 68.37 101.64 67.8C101.75 67.59 101.8 67.32 101.91 67.12C102.22 66.33 102.54 65.55 102.85 64.71C103.19 63.81 103.5 62.9 103.8 61.99C104.1 61.07 104.37 60.15 104.63 59.23C104.89 58.3 105.13 57.37 105.35 56.44C105.57 55.5 105.78 54.56 105.96 53.62C105.96 53.57 106.01 53.46 106.01 53.41C106.27 52 106.54 50.53 106.69 49.07C106.8 48.39 106.85 47.71 106.96 47.03C107.01 46.5 107.06 45.93 107.12 45.35L107.12 45.04C107.22 43.84 107.27 42.63 107.27 41.43C107.31 39.77 107.29 38.1 107.22 36.44C107.14 34.78 107.01 33.12 106.82 31.47C106.63 29.81 106.39 28.17 106.09 26.53C105.78 24.89 105.43 23.27 105.01 21.66C104.97 21.48 104.93 21.31 104.88 21.13C104.84 20.95 104.79 20.78 104.74 20.61C104.69 20.43 104.64 20.26 104.59 20.08C104.54 19.91 104.49 19.74 104.43 19.56C104.38 19.39 104.38 19.35 104.38 18.99L104.38 18.62L104.38 18.41L104.38 18.2C104.38 16.9 104.7 14.8 106.12 12.97C107.12 11.66 108.69 10.41 111.11 9.68C113.43 9 115.69 9.62 117.64 10.93C120.74 12.82 123.27 16.37 124.69 18.62L124.69 18.62Z" />
	<path id="Layer" class="shp3" d="M111.06 9.57C111.06 9.63 111.11 9.63 111.11 9.68C112 11.08 112.84 12.52 113.63 13.98C114.42 15.44 115.15 16.93 115.84 18.45C116.53 19.96 117.16 21.5 117.74 23.05C118.32 24.61 118.85 26.19 119.32 27.78C119.59 28.61 119.85 29.5 120.06 30.39C130.11 69.47 106.43 109.23 67.13 119.27C65.71 119.63 64.28 119.94 62.83 120.22C61.39 120.49 59.94 120.72 58.49 120.92C57.04 121.11 55.58 121.26 54.11 121.37C52.65 121.48 51.18 121.55 49.72 121.57L47.19 121.57C46.67 121.57 46.09 121.52 45.56 121.52C45.46 121.31 45.4 121.05 45.35 120.84C45.3 120.58 45.3 120.37 45.3 120.11C45.35 118.22 46.98 116.29 49.3 114.51C54.4 110.53 62.92 107.08 66.34 105.2C66.56 105.09 66.77 104.99 66.98 104.88C67.19 104.78 67.4 104.67 67.61 104.56C67.82 104.45 68.03 104.34 68.24 104.23C68.45 104.12 68.66 104 68.87 103.89C68.92 103.89 68.97 103.84 69.03 103.84C69.92 103.37 70.82 102.84 71.71 102.32C71.81 102.27 71.87 102.22 71.97 102.16C72.13 102.06 72.34 101.95 72.5 101.85C72.55 101.81 72.61 101.77 72.66 101.73C72.72 101.7 72.77 101.66 72.83 101.63C72.89 101.59 72.95 101.56 73 101.53C73.06 101.49 73.12 101.46 73.18 101.43C73.39 101.33 73.66 101.12 73.87 101.01C74.18 100.8 74.5 100.65 74.76 100.44C75.34 100.02 75.92 99.65 76.5 99.23C76.81 99.03 77.18 98.76 77.5 98.5C78.08 98.08 78.6 97.66 79.13 97.25L80.07 96.46L80.86 95.84C81.13 95.63 81.39 95.36 81.65 95.16C82.44 94.47 83.18 93.8 83.97 93.11L84.13 92.96L84.34 92.75L84.92 92.17C85.81 91.34 86.65 90.45 87.49 89.56C88.33 88.67 89.12 87.73 89.91 86.78C90.02 86.63 90.18 86.52 90.28 86.37C90.39 86.21 90.49 86.1 90.65 85.95L90.81 85.79C91.18 85.32 91.54 84.9 91.86 84.43C92.07 84.17 92.28 83.85 92.54 83.59C92.6 83.54 92.65 83.44 92.7 83.38C92.75 83.28 92.86 83.17 92.91 83.12C93.23 82.7 93.49 82.29 93.81 81.87L94.44 80.93C94.54 80.77 94.65 80.66 94.7 80.51C95.02 80.04 95.28 79.62 95.59 79.15L96.38 77.89C96.7 77.37 97.02 76.9 97.33 76.38C97.59 75.96 97.86 75.48 98.07 75.02C98.28 74.6 98.54 74.18 98.75 73.71C98.8 73.65 98.8 73.55 98.86 73.5C98.96 73.24 99.12 73.03 99.23 72.77L100.33 70.57C100.49 70.2 100.7 69.84 100.86 69.47C101.12 68.89 101.38 68.32 101.59 67.74C101.7 67.53 101.75 67.27 101.86 67.06C101.96 66.85 102.01 66.59 102.12 66.38C102.33 65.81 102.59 65.23 102.8 64.66C102.96 64.19 103.12 63.71 103.28 63.19C103.49 62.62 103.64 62.09 103.85 61.52C103.96 61.2 104.01 60.94 104.12 60.63C104.17 60.42 104.28 60.16 104.33 59.95C104.49 59.43 104.64 58.9 104.75 58.38C104.91 57.86 105.01 57.28 105.17 56.76C105.28 56.34 105.38 55.87 105.49 55.45C105.64 54.82 105.75 54.19 105.91 53.57C105.91 53.51 105.96 53.41 105.96 53.36C106.06 52.78 106.17 52.15 106.28 51.58C106.33 51.21 106.38 50.85 106.43 50.43C106.49 49.96 106.59 49.49 106.64 48.96C106.7 48.54 106.75 48.13 106.8 47.66C106.85 47.39 106.85 47.13 106.91 46.87C106.96 46.35 107.01 45.77 107.06 45.2L107.06 44.88C107.12 44.41 107.12 43.99 107.12 43.52C107.17 43.16 107.17 42.79 107.17 42.42C107.17 42.06 107.22 41.69 107.22 41.27L107.22 39.65L107.22 38.81C107.22 38.13 107.22 37.4 107.17 36.72C107.17 36.25 107.12 35.78 107.12 35.31C107.06 34.63 107.01 33.95 106.96 33.22L106.8 31.8C106.7 31.12 106.64 30.39 106.54 29.71C106.49 29.24 106.43 28.82 106.33 28.35C106.3 28.16 106.27 27.97 106.24 27.77C106.21 27.58 106.17 27.39 106.14 27.2C106.1 27.01 106.07 26.81 106.03 26.62C105.99 26.43 105.95 26.24 105.91 26.05C105.85 25.74 105.8 25.48 105.75 25.16C105.75 25.06 105.7 24.9 105.7 24.8C105.64 24.51 105.59 24.23 105.53 23.95C105.47 23.67 105.4 23.39 105.34 23.11C105.27 22.83 105.2 22.56 105.13 22.28C105.06 22 104.99 21.72 104.91 21.45C104.86 21.27 104.82 21.1 104.78 20.92C104.73 20.75 104.68 20.57 104.64 20.4C104.59 20.22 104.54 20.05 104.49 19.87C104.44 19.7 104.38 19.53 104.33 19.36C104.27 19.18 104.28 19.15 104.28 18.78L104.28 18.41L104.28 18.2L104.28 17.99C104.28 16.69 104.59 14.59 106.01 12.76C107.06 11.51 108.59 10.3 111.06 9.57L111.06 9.57Z" />
	<path id="Layer" class="shp1" d="M51.3 117.41C49.51 121.43 49.51 125.36 51.93 129.12C50.03 128.02 48.35 126.51 47.56 124.47L47.56 124.41C47.46 124.21 47.4 123.94 47.35 123.73C47.3 123.47 47.3 123.26 47.3 123C47.35 121.12 48.98 119.24 51.3 117.4L51.3 117.41Z" />
</svg>