<svg width="26" height="17" viewBox="0 0 26 17" fill="none" xmlns="http://www.w3.org/2000/svg">
<path d="M25.339 10.561C25.2553 10.4767 25.1558 10.4097 25.0461 10.364C24.9365 10.3184 24.8188 10.2948 24.7 10.2948C24.5812 10.2948 24.4636 10.3184 24.3539 10.364C24.2442 10.4097 24.1447 10.4767 24.061 10.561L21.1 13.5311V6.70005C21.1 6.46135 21.0052 6.23244 20.8364 6.06365C20.6676 5.89487 20.4387 5.80005 20.2 5.80005C19.9613 5.80005 19.7324 5.89487 19.5636 6.06365C19.3948 6.23244 19.3 6.46135 19.3 6.70005V13.5311L16.339 10.561C16.1695 10.3916 15.9397 10.2964 15.7 10.2964C15.4603 10.2964 15.2305 10.3916 15.061 10.561C14.8915 10.7305 14.7963 10.9604 14.7963 11.2C14.7963 11.4397 14.8915 11.6696 15.061 11.839L19.561 16.339C19.6466 16.421 19.7475 16.4852 19.858 16.5281C19.9657 16.5757 20.0822 16.6003 20.2 16.6003C20.3178 16.6003 20.4343 16.5757 20.542 16.5281C20.6525 16.4852 20.7534 16.421 20.839 16.339L25.339 11.839C25.4234 11.7554 25.4903 11.6558 25.536 11.5462C25.5817 11.4365 25.6052 11.3189 25.6052 11.2C25.6052 11.0812 25.5817 10.9636 25.536 10.8539C25.4903 10.7443 25.4234 10.6447 25.339 10.561V10.561Z" fill="url(#paint0_linear)"/>
<path d="M10.939 6.43895C10.8553 6.52331 10.7558 6.59026 10.6461 6.63595C10.5364 6.68164 10.4188 6.70517 10.3 6.70517C10.1812 6.70517 10.0636 6.68164 9.95388 6.63595C9.84421 6.59026 9.74467 6.52331 9.661 6.43895L6.7 3.46895V10.3C6.7 10.5386 6.60518 10.7676 6.4364 10.9363C6.26761 11.1051 6.03869 11.2 5.8 11.2C5.5613 11.2 5.33239 11.1051 5.1636 10.9363C4.99482 10.7676 4.9 10.5386 4.9 10.3V3.46895L1.939 6.43895C1.76953 6.60842 1.53967 6.70363 1.3 6.70363C1.06033 6.70363 0.830472 6.60842 0.660999 6.43895C0.491526 6.26948 0.396317 6.03962 0.396317 5.79995C0.396317 5.56028 0.491526 5.33042 0.660999 5.16095L5.161 0.66095C5.24659 0.579014 5.34752 0.514784 5.458 0.471949C5.56573 0.424335 5.68222 0.39974 5.8 0.39974C5.91778 0.39974 6.03427 0.424335 6.142 0.471949C6.25248 0.514784 6.35341 0.579014 6.439 0.66095L10.939 5.16095C11.0234 5.24462 11.0903 5.34416 11.136 5.45383C11.1817 5.5635 11.2052 5.68114 11.2052 5.79995C11.2052 5.91876 11.1817 6.0364 11.136 6.14607C11.0903 6.25574 11.0234 6.35528 10.939 6.43895V6.43895Z" fill="url(#paint1_linear)"/>
<defs>
<linearGradient id="paint0_linear" x1="25.6052" y1="12.6212" x2="14.7963" y2="12.6212" gradientUnits="userSpaceOnUse">
<stop stop-color="#F95252"/>
<stop offset="0.984776" stop-color="#B90973"/>
</linearGradient>
<linearGradient id="paint1_linear" x1="11.2052" y1="4.37877" x2="0.396317" y2="4.37877" gradientUnits="userSpaceOnUse">
<stop stop-color="#F95252"/>
<stop offset="0.984776" stop-color="#B90973"/>
</linearGradient>
</defs>
</svg>
