<svg width="22" height="20" viewBox="0 0 22 20" fill="none" xmlns="http://www.w3.org/2000/svg">
<path d="M11 4.05485e-05C9.46791 -0.00273137 7.95565 0.346579 6.57996 1.02101C5.20428 1.69544 4.00196 2.67696 3.0658 3.8898C2.12964 5.10264 1.48469 6.51438 1.18072 8.01604C0.87675 9.51769 0.921893 11.0691 1.31266 12.5506C1.70344 14.032 2.42938 15.4038 3.43448 16.5602C4.43957 17.7166 5.69693 18.6265 7.10951 19.2198C8.52208 19.8131 10.0521 20.0739 11.5815 19.982C13.1108 19.8902 14.5986 19.4481 15.93 18.69H16.05C17.9753 17.5941 19.4821 15.8898 20.334 13.8448C21.1858 11.7997 21.3345 9.52974 20.7566 7.39107C20.1788 5.25241 18.9071 3.36618 17.1412 2.02845C15.3754 0.690735 13.2153 -0.022735 11 4.05485e-05ZM12 2.07004C13.76 2.29323 15.3959 3.09514 16.6504 4.34963C17.9049 5.60412 18.7068 7.24002 18.93 9.00004H12V2.07004ZM11 18C8.97453 17.9862 7.02968 17.2046 5.55796 15.8129C4.08624 14.4212 3.19723 12.523 3.07033 10.5014C2.94342 8.47988 3.58808 6.48543 4.87421 4.9206C6.16033 3.35577 7.99216 2.33705 10 2.07004V10C10.004 10.1198 10.0276 10.238 10.07 10.35V10.5L14.07 17.37C13.0998 17.7853 12.0554 17.9996 11 18ZM15.83 16.36L12.73 11H18.93C18.7954 12.0546 18.4519 13.0718 17.9196 13.9921C17.3874 14.9124 16.677 15.7174 15.83 16.36Z" fill="#ADBCC7"/>
</svg>
