<svg width="54" height="30" viewBox="0 0 54 30" fill="none" xmlns="http://www.w3.org/2000/svg">
<path opacity="0.5" d="M0 14.5C0 6.49187 6.49187 0 14.5 0H39.5C47.5081 0 54 6.49187 54 14.5C54 22.5081 47.5081 29 39.5 29H14.5C6.49187 29 0 22.5081 0 14.5Z" fill="#ADBCC7"/>
<g filter="url(#filter0_d)">
<circle cx="14.5" cy="14.5" r="11.5" fill="white"/>
</g>
<circle cx="39.5" cy="14.5" r="11.5" fill="#ADBCC7"/>
<path d="M14.5001 9.03163C14.6253 9.03163 14.7454 8.98188 14.834 8.89332C14.9225 8.80476 14.9723 8.68465 14.9723 8.55941V6.90191C14.9723 6.77667 14.9225 6.65656 14.834 6.568C14.7454 6.47944 14.6253 6.42969 14.5001 6.42969C14.3748 6.42969 14.2547 6.47944 14.1661 6.568C14.0776 6.65656 14.0278 6.77667 14.0278 6.90191V8.55941C14.0278 8.68465 14.0776 8.80476 14.1661 8.89332C14.2547 8.98188 14.3748 9.03163 14.5001 9.03163Z" fill="url(#paint0_linear)"/>
<path d="M14.5001 19.9688C14.3748 19.9688 14.2547 20.0185 14.1661 20.1071C14.0776 20.1956 14.0278 20.3157 14.0278 20.441V22.0985C14.0278 22.2237 14.0776 22.3438 14.1661 22.4324C14.2547 22.5209 14.3748 22.5707 14.5001 22.5707C14.6253 22.5707 14.7454 22.5209 14.834 22.4324C14.9225 22.3438 14.9723 22.2237 14.9723 22.0985V20.441C14.9723 20.3157 14.9225 20.1956 14.834 20.1071C14.7454 20.0185 14.6253 19.9688 14.5001 19.9688Z" fill="url(#paint1_linear)"/>
<path d="M9.96679 10.6341C10.0571 10.7114 10.1733 10.7519 10.2922 10.7473C10.411 10.7427 10.5238 10.6934 10.6079 10.6093C10.692 10.5252 10.7412 10.4125 10.7458 10.2936C10.7504 10.1748 10.71 10.0586 10.6326 9.96825L9.46151 8.79714C9.37117 8.71978 9.25497 8.67936 9.13613 8.68395C9.01728 8.68854 8.90454 8.7378 8.82044 8.8219C8.73634 8.906 8.68707 9.01874 8.68248 9.13759C8.67789 9.25644 8.71832 9.37264 8.79568 9.46298L9.96679 10.6341Z" fill="url(#paint2_linear)"/>
<path d="M19.0333 18.3675C18.943 18.2901 18.8267 18.2497 18.7079 18.2543C18.5891 18.2588 18.4763 18.3081 18.3922 18.3922C18.3081 18.4763 18.2588 18.5891 18.2543 18.7079C18.2497 18.8267 18.2901 18.943 18.3675 19.0333L19.5386 20.2044C19.6289 20.2818 19.7451 20.3222 19.864 20.3176C19.9828 20.313 20.0955 20.2637 20.1796 20.1796C20.2637 20.0955 20.313 19.9828 20.3176 19.864C20.3222 19.7451 20.2818 19.6289 20.2044 19.5386L19.0333 18.3675Z" fill="url(#paint3_linear)"/>
<path d="M9.03163 14.4996C9.03163 14.3743 8.98188 14.2542 8.89332 14.1657C8.80476 14.0771 8.68465 14.0273 8.55941 14.0273H6.90191C6.77667 14.0273 6.65656 14.0771 6.568 14.1657C6.47944 14.2542 6.42969 14.3743 6.42969 14.4996C6.42969 14.6248 6.47944 14.7449 6.568 14.8335C6.65656 14.922 6.77667 14.9718 6.90191 14.9718H8.55941C8.68465 14.9718 8.80476 14.922 8.89332 14.8335C8.98188 14.7449 9.03163 14.6248 9.03163 14.4996Z" fill="url(#paint4_linear)"/>
<path d="M22.098 14.0273H20.4405C20.3152 14.0273 20.1951 14.0771 20.1066 14.1657C20.018 14.2542 19.9683 14.3743 19.9683 14.4996C19.9683 14.6248 20.018 14.7449 20.1066 14.8335C20.1951 14.922 20.3152 14.9718 20.4405 14.9718H22.098C22.2232 14.9718 22.3433 14.922 22.4319 14.8335C22.5205 14.7449 22.5702 14.6248 22.5702 14.4996C22.5702 14.3743 22.5205 14.2542 22.4319 14.1657C22.3433 14.0771 22.2232 14.0273 22.098 14.0273Z" fill="url(#paint5_linear)"/>
<path d="M9.96679 18.3675L8.79568 19.5386C8.71832 19.6289 8.67789 19.7451 8.68248 19.864C8.68707 19.9828 8.73634 20.0955 8.82044 20.1796C8.90454 20.2637 9.01728 20.313 9.13613 20.3176C9.25497 20.3222 9.37117 20.2818 9.46151 20.2044L10.6326 19.0333C10.71 18.943 10.7504 18.8267 10.7458 18.7079C10.7412 18.5891 10.692 18.4763 10.6079 18.3922C10.5238 18.3081 10.411 18.2588 10.2922 18.2543C10.1733 18.2497 10.0571 18.2901 9.96679 18.3675Z" fill="url(#paint6_linear)"/>
<path d="M19.0333 10.6341L20.2044 9.46298C20.2818 9.37264 20.3222 9.25644 20.3176 9.13759C20.313 9.01874 20.2637 8.906 20.1796 8.8219C20.0955 8.7378 19.9828 8.68854 19.864 8.68395C19.7451 8.67936 19.6289 8.71978 19.5386 8.79714L18.3675 9.96825C18.2901 10.0586 18.2497 10.1748 18.2543 10.2936C18.2588 10.4125 18.3081 10.5252 18.3922 10.6093C18.4763 10.6934 18.5891 10.7427 18.7079 10.7473C18.8267 10.7519 18.943 10.7114 19.0333 10.6341Z" fill="url(#paint7_linear)"/>
<path d="M14.5001 19.2218C17.1081 19.2218 19.2223 17.1076 19.2223 14.4996C19.2223 11.8916 17.1081 9.77734 14.5001 9.77734C11.892 9.77734 9.77783 11.8916 9.77783 14.4996C9.77783 17.1076 11.892 19.2218 14.5001 19.2218Z" fill="url(#paint8_linear)"/>
<path d="M44.7887 18.6195C43.5585 18.6056 42.3658 18.1941 41.3889 17.4464C40.4119 16.6986 39.7031 15.6549 39.3683 14.471C39.0336 13.2872 39.0909 12.0268 39.5316 10.8782C39.9724 9.7296 40.7729 8.75443 41.8137 8.0984C41.2878 7.9617 40.7468 7.89189 40.2034 7.89062C38.45 7.89063 36.7685 8.58715 35.5286 9.82697C34.2888 11.0668 33.5923 12.7484 33.5923 14.5017C33.5923 16.2551 34.2888 17.9367 35.5286 19.1765C36.7685 20.4163 38.45 21.1128 40.2034 21.1128C41.1967 21.112 42.1767 20.8843 43.0687 20.4473C43.9607 20.0103 44.7411 19.3755 45.3506 18.5912C45.1639 18.6102 44.9763 18.6196 44.7887 18.6195Z" fill="#CFD8DF"/>
<defs>
<filter id="filter0_d" x="1" y="3" width="27" height="27" filterUnits="userSpaceOnUse" color-interpolation-filters="sRGB">
<feFlood flood-opacity="0" result="BackgroundImageFix"/>
<feColorMatrix in="SourceAlpha" type="matrix" values="0 0 0 0 0 0 0 0 0 0 0 0 0 0 0 0 0 0 127 0"/>
<feOffset dy="2"/>
<feGaussianBlur stdDeviation="1"/>
<feColorMatrix type="matrix" values="0 0 0 0 0.574913 0 0 0 0 0.673521 0 0 0 0 0.745833 0 0 0 1 0"/>
<feBlend mode="normal" in2="BackgroundImageFix" result="effect1_dropShadow"/>
<feBlend mode="normal" in="SourceGraphic" in2="effect1_dropShadow" result="shape"/>
</filter>
<linearGradient id="paint0_linear" x1="14.9723" y1="8.07302" x2="14.0278" y2="8.07302" gradientUnits="userSpaceOnUse">
<stop stop-color="#F95252"/>
<stop offset="0.984776" stop-color="#B90973"/>
</linearGradient>
<linearGradient id="paint1_linear" x1="14.9723" y1="21.6121" x2="14.0278" y2="21.6121" gradientUnits="userSpaceOnUse">
<stop stop-color="#F95252"/>
<stop offset="0.984776" stop-color="#B90973"/>
</linearGradient>
<linearGradient id="paint2_linear" x1="10.7462" y1="9.9872" x2="8.68213" y2="9.9872" gradientUnits="userSpaceOnUse">
<stop stop-color="#F95252"/>
<stop offset="0.984776" stop-color="#B90973"/>
</linearGradient>
<linearGradient id="paint3_linear" x1="20.3179" y1="19.5575" x2="18.2539" y2="19.5575" gradientUnits="userSpaceOnUse">
<stop stop-color="#F95252"/>
<stop offset="0.984776" stop-color="#B90973"/>
</linearGradient>
<linearGradient id="paint4_linear" x1="9.03163" y1="14.6238" x2="6.42969" y2="14.6238" gradientUnits="userSpaceOnUse">
<stop stop-color="#F95252"/>
<stop offset="0.984776" stop-color="#B90973"/>
</linearGradient>
<linearGradient id="paint5_linear" x1="22.5702" y1="14.6238" x2="19.9683" y2="14.6238" gradientUnits="userSpaceOnUse">
<stop stop-color="#F95252"/>
<stop offset="0.984776" stop-color="#B90973"/>
</linearGradient>
<linearGradient id="paint6_linear" x1="10.7462" y1="19.5575" x2="8.68213" y2="19.5575" gradientUnits="userSpaceOnUse">
<stop stop-color="#F95252"/>
<stop offset="0.984776" stop-color="#B90973"/>
</linearGradient>
<linearGradient id="paint7_linear" x1="20.3179" y1="9.9872" x2="18.2539" y2="9.9872" gradientUnits="userSpaceOnUse">
<stop stop-color="#F95252"/>
<stop offset="0.984776" stop-color="#B90973"/>
</linearGradient>
<linearGradient id="paint8_linear" x1="19.2223" y1="15.7423" x2="9.77783" y2="15.7423" gradientUnits="userSpaceOnUse">
<stop stop-color="#F95252"/>
<stop offset="0.984776" stop-color="#B90973"/>
</linearGradient>
</defs>
</svg>
