<svg width="23" height="21" viewBox="0 0 23 21" fill="none" xmlns="http://www.w3.org/2000/svg">
<path d="M19 15.0001C18.3793 15.0033 17.7748 15.199 17.27 15.5601L14.82 14.1101C14.9356 13.7513 14.9963 13.3771 15 13.0001C14.9971 12.1156 14.7011 11.2569 14.1583 10.5585C13.6155 9.86006 12.8565 9.36126 12 9.14013V6.82013C12.6672 6.58423 13.2296 6.12006 13.5876 5.50965C13.9457 4.89924 14.0765 4.18189 13.9568 3.48439C13.8371 2.7869 13.4747 2.15416 12.9337 1.69802C12.3926 1.24188 11.7077 0.991699 11 0.991699C10.2923 0.991699 9.60741 1.24188 9.06634 1.69802C8.52527 2.15416 8.16288 2.7869 8.04321 3.48439C7.92353 4.18189 8.05429 4.89924 8.41237 5.50965C8.77045 6.12006 9.33279 6.58423 10 6.82013V9.14013C9.14353 9.36126 8.38451 9.86006 7.84169 10.5585C7.29887 11.2569 7.00287 12.1156 7 13.0001C7.00372 13.3771 7.0644 13.7513 7.18 14.1101L4.73 15.5601C4.22516 15.199 3.62072 15.0033 3 15.0001C2.40666 15.0001 1.82664 15.1761 1.33329 15.5057C0.839943 15.8354 0.455426 16.3039 0.228363 16.8521C0.00129986 17.4003 -0.0581102 18.0035 0.0576455 18.5854C0.173401 19.1673 0.459123 19.7019 0.878681 20.1214C1.29824 20.541 1.83279 20.8267 2.41473 20.9425C2.99667 21.0582 3.59987 20.9988 4.14805 20.7718C4.69623 20.5447 5.16477 20.1602 5.49441 19.6668C5.82405 19.1735 6 18.5935 6 18.0001C5.9963 17.7293 5.95594 17.4602 5.88 17.2001L8.18 15.8301C8.92945 16.5751 9.94326 16.9933 11 16.9933C12.0567 16.9933 13.0706 16.5751 13.82 15.8301L16.12 17.2001C15.9524 17.8057 15.9793 18.4487 16.1967 19.0382C16.4141 19.6277 16.8112 20.1341 17.3318 20.4859C17.8525 20.8377 18.4705 21.0171 19.0986 20.9988C19.7267 20.9806 20.3332 20.7656 20.8325 20.3841C21.3318 20.0027 21.6988 19.4741 21.8816 18.8729C22.0644 18.2717 22.0538 17.6283 21.8514 17.0335C21.6489 16.4386 21.2648 15.9224 20.7532 15.5576C20.2416 15.1927 19.6284 14.9977 19 15.0001ZM3 19.0001C2.80222 19.0001 2.60888 18.9415 2.44443 18.8316C2.27998 18.7217 2.15181 18.5655 2.07612 18.3828C2.00043 18.2001 1.98063 17.999 2.01922 17.805C2.0578 17.6111 2.15304 17.4329 2.29289 17.293C2.43275 17.1532 2.61093 17.0579 2.80491 17.0193C2.99889 16.9808 3.19996 17.0006 3.38268 17.0762C3.56541 17.1519 3.72159 17.2801 3.83147 17.4446C3.94135 17.609 4 17.8023 4 18.0001C4 18.2653 3.89464 18.5197 3.70711 18.7072C3.51957 18.8948 3.26522 19.0001 3 19.0001ZM11 3.00013C11.1978 3.00013 11.3911 3.05878 11.5556 3.16866C11.72 3.27854 11.8482 3.43472 11.9239 3.61744C11.9996 3.80017 12.0194 4.00124 11.9808 4.19522C11.9422 4.3892 11.847 4.56738 11.7071 4.70723C11.5673 4.84709 11.3891 4.94233 11.1951 4.98091C11.0011 5.0195 10.8 4.99969 10.6173 4.92401C10.4346 4.84832 10.2784 4.72015 10.1685 4.5557C10.0587 4.39125 10 4.19791 10 4.00013C10 3.73491 10.1054 3.48056 10.2929 3.29302C10.4804 3.10548 10.7348 3.00013 11 3.00013ZM11 15.0001C10.6044 15.0001 10.2178 14.8828 9.88886 14.6631C9.55996 14.4433 9.30362 14.1309 9.15224 13.7655C9.00087 13.4 8.96126 12.9979 9.03843 12.6099C9.1156 12.222 9.30608 11.8656 9.58579 11.5859C9.86549 11.3062 10.2219 11.1157 10.6098 11.0386C10.9978 10.9614 11.3999 11.001 11.7654 11.1524C12.1308 11.3037 12.4432 11.5601 12.6629 11.889C12.8827 12.2179 13 12.6046 13 13.0001C13 13.5306 12.7893 14.0393 12.4142 14.4143C12.0391 14.7894 11.5304 15.0001 11 15.0001ZM19 19.0001C18.8022 19.0001 18.6089 18.9415 18.4444 18.8316C18.28 18.7217 18.1518 18.5655 18.0761 18.3828C18.0004 18.2001 17.9806 17.999 18.0192 17.805C18.0578 17.6111 18.153 17.4329 18.2929 17.293C18.4327 17.1532 18.6109 17.0579 18.8049 17.0193C18.9989 16.9808 19.2 17.0006 19.3827 17.0762C19.5654 17.1519 19.7216 17.2801 19.8315 17.4446C19.9414 17.609 20 17.8023 20 18.0001C20 18.2653 19.8946 18.5197 19.7071 18.7072C19.5196 18.8948 19.2652 19.0001 19 19.0001Z" fill="#ADBCC7"/>
</svg>
