<svg width="20" height="18" viewBox="0 0 20 18" fill="none" xmlns="http://www.w3.org/2000/svg">
<path d="M18.5543 1.02354C18.3171 0.826168 18.0307 0.696827 17.7258 0.649281C17.4209 0.601736 17.1087 0.637767 16.8227 0.753537L1.8885 6.7827C1.56921 6.91412 1.29742 7.13951 1.1092 7.42897C0.920978 7.71843 0.825214 8.05828 0.834616 8.40342C0.844017 8.74857 0.95814 9.0827 1.16184 9.36149C1.36554 9.64027 1.64919 9.85053 1.97516 9.96437L4.996 11.0152L6.67933 16.5835C6.7024 16.6578 6.73578 16.7285 6.7785 16.7935C6.78516 16.8035 6.79433 16.8102 6.801 16.821C6.85011 16.8894 6.90941 16.9498 6.97683 17.0002C6.99565 17.0149 7.01511 17.0288 7.03516 17.0419C7.1141 17.0943 7.2015 17.1326 7.2935 17.1552L7.30433 17.156L7.30933 17.1585C7.36502 17.1697 7.42169 17.1753 7.4785 17.1752L7.4935 17.1727C7.57884 17.1713 7.66346 17.1567 7.74433 17.1294C7.7635 17.1227 7.77933 17.1127 7.79766 17.1044C7.85816 17.0796 7.91551 17.0477 7.9685 17.0094C8.01071 16.9735 8.05293 16.9377 8.09516 16.9019L10.3468 14.416L13.7052 17.0177C14.0008 17.2479 14.3646 17.3731 14.7393 17.3735C15.132 17.3731 15.5126 17.2376 15.8173 16.9898C16.122 16.7421 16.3322 16.3971 16.4127 16.0127L19.1318 2.6652C19.1933 2.36492 19.1721 2.05356 19.0704 1.76441C18.9687 1.47526 18.7903 1.21918 18.5543 1.02354ZM7.8085 11.2802C7.69309 11.3954 7.61424 11.5421 7.58183 11.7019L7.3235 12.9552L6.67016 10.7944L10.0577 9.0302L7.8085 11.2802ZM14.7268 15.7002L10.7577 12.6252C10.5916 12.497 10.3833 12.4362 10.1744 12.4547C9.9654 12.4732 9.7711 12.5698 9.63016 12.7252L8.9085 13.521L9.1635 12.2819L15.066 6.37937C15.206 6.23847 15.2911 6.05217 15.306 5.85405C15.3208 5.65594 15.2643 5.45906 15.1468 5.29889C15.0293 5.13873 14.8584 5.02582 14.6649 4.98053C14.4715 4.93524 14.2683 4.96054 14.0918 5.05187L5.621 9.46187L2.51683 8.32604L17.4993 2.33354L14.7268 15.7002Z" fill="#ADBCC7"/>
</svg>
