<svg width="20" height="20" viewBox="0 0 20 20" fill="none" xmlns="http://www.w3.org/2000/svg">
<path d="M10 0C8.02219 0 6.08879 0.58649 4.4443 1.6853C2.79981 2.78412 1.51809 4.3459 0.761209 6.17317C0.00433284 8.00043 -0.193701 10.0111 0.192152 11.9509C0.578004 13.8907 1.53041 15.6725 2.92894 17.0711C4.32746 18.4696 6.10929 19.422 8.0491 19.8079C9.98891 20.1937 11.9996 19.9957 13.8268 19.2388C15.6541 18.4819 17.2159 17.2002 18.3147 15.5557C19.4135 13.9112 20 11.9778 20 10C19.9971 7.34873 18.9426 4.80688 17.0679 2.93215C15.1931 1.05742 12.6513 0.0029116 10 0ZM10 18C8.41775 18 6.87104 17.5308 5.55544 16.6518C4.23985 15.7727 3.21447 14.5233 2.60897 13.0615C2.00347 11.5997 1.84504 9.99113 2.15372 8.43928C2.4624 6.88743 3.22433 5.46197 4.34315 4.34315C5.46197 3.22433 6.88743 2.4624 8.43928 2.15372C9.99113 1.84504 11.5997 2.00346 13.0615 2.60896C14.5233 3.21447 15.7727 4.23984 16.6518 5.55544C17.5308 6.87103 18 8.41775 18 10C17.9974 12.1209 17.1537 14.1542 15.6539 15.6539C14.1542 17.1536 12.1209 17.9974 10 18Z" fill="#ADBCC7"/>
<path fill-rule="evenodd" clip-rule="evenodd" d="M11.9062 14.4H8.07282C7.32918 14.4 6.76359 14.2383 6.37606 13.9042C5.98853 13.5808 5.8 13.0958 5.8 12.4599V10.2H8.44988V11.7377C8.44988 12.2551 8.73267 12.503 9.29825 12.503H10.7646C11.2359 12.4814 11.5082 12.2874 11.5711 11.921V10.2H14.2V12.4168C14.2 12.7401 14.1372 13.0204 14.0324 13.2575C13.9172 13.5054 13.7601 13.7102 13.5611 13.8826C13.3621 14.0551 13.1212 14.1844 12.8384 14.2707C12.5556 14.3569 12.2414 14.4 11.9062 14.4ZM14.2 9V10.2H16V9H14.2ZM11.5711 9H14.2V6H11.5711V9ZM5.8 9V10.2H4V9H5.8ZM5.8 9V6H8.44988V9H5.8Z" fill="#ADBCC7"/>
</svg>
