<svg width="119" height="17" viewBox="0 0 119 17" fill="none" xmlns="http://www.w3.org/2000/svg">
<path d="M5.925 17H15.075C15.875 17 16.625 16.9 17.3 16.7C17.975 16.5 18.55 16.2 19.025 15.8C19.5 15.4 19.875 14.925 20.15 14.35C20.4 13.8 20.55 13.15 20.55 12.4V0.299999H14.275V11.25C14.125 12.1 13.475 12.55 12.35 12.6H8.85C7.5 12.6 6.825 12.025 6.825 10.825V0.299999H0.5V12.5C0.5 13.975 0.95 15.1 1.875 15.85C2.8 16.625 4.15 17 5.925 17ZM30.5469 10.825C29.3469 10.825 28.3719 10.725 27.5719 10.475C26.7719 10.25 26.0969 9.925 25.5719 9.525C25.0219 9.125 24.6219 8.675 24.3219 8.125C24.0219 7.6 23.7969 7.025 23.6469 6.425H36.2469C37.6469 6.425 38.7969 6.55 39.7469 6.775C40.6969 7 41.4469 7.325 42.0219 7.725C42.5969 8.15 43.0219 8.65 43.2719 9.2C43.5219 9.775 43.6469 10.4 43.6469 11.1C43.6469 12 43.4969 12.8 43.2219 13.525C42.9219 14.25 42.4719 14.875 41.8719 15.375C41.2469 15.9 40.4469 16.3 39.4719 16.575C38.4719 16.875 37.2969 17 35.8969 17H23.5469V12.625H35.1469C36.5719 12.625 37.2969 12.025 37.2969 10.825H30.5469ZM23.6469 4.7C23.6969 4 23.8469 3.375 24.1219 2.825C24.3719 2.275 24.7969 1.825 25.3719 1.45C25.9469 1.075 26.6969 0.8 27.6469 0.6C28.5969 0.399999 29.7719 0.299999 31.1969 0.299999H43.6219V4.7H23.6469ZM52.9182 0.299999H46.6182V9.325C46.6182 10.625 46.7932 11.775 47.1932 12.725C47.5682 13.675 48.1682 14.475 48.9682 15.125C49.7682 15.775 50.7932 16.25 52.0432 16.55C53.2932 16.85 54.7682 17 56.5182 17H72.0182V0.299999H65.6932V12.625H57.3182C55.8682 12.625 54.7682 12.375 54.0182 11.875C53.2682 11.375 52.9182 10.525 52.9182 9.325V0.299999ZM56.1682 10.85H62.4932V0.299999H56.1682V10.85ZM95.0867 0.299999V4.7H83.4117C82.0117 4.7 81.3117 5.3 81.3117 6.5V7.35H95.0867V17H88.7617V11.75H81.3117V17H75.0117V5.025C75.0117 4.325 75.1367 3.675 75.4367 3.075C75.7117 2.5 76.1117 2 76.6117 1.575C77.1117 1.175 77.6867 0.849999 78.3867 0.624999C79.0617 0.424999 79.8117 0.299999 80.6117 0.299999H95.0867ZM104.408 11.75H112.608C113.408 11.75 114.133 11.65 114.833 11.45C115.508 11.25 116.083 10.95 116.583 10.55C117.083 10.15 117.458 9.675 117.733 9.1C118.008 8.55 118.158 7.9 118.158 7.15V0.299999H98.083V4.7H111.858V5.55C111.858 6.75 111.158 7.35 109.758 7.35H98.083V17H104.408V11.75Z" fill="url(#paint0_linear)"/>
<defs>
<linearGradient id="paint0_linear" x1="120" y1="11.4211" x2="-1" y2="11.4211" gradientUnits="userSpaceOnUse">
<stop stop-color="#F95252"/>
<stop offset="0.984776" stop-color="#B90973"/>
</linearGradient>
</defs>
</svg>
