<svg width="20" height="14" viewBox="0 0 20 14" fill="none" xmlns="http://www.w3.org/2000/svg">
<path fill-rule="evenodd" clip-rule="evenodd" d="M13.1771 14H6.78803C5.54863 14 4.60599 13.7305 3.9601 13.1737C3.31421 12.6347 3 11.8263 3 10.7665V7H7.41646V9.56287C7.41646 10.4251 7.88778 10.8383 8.83042 10.8383H11.2743C12.0598 10.8024 12.5137 10.479 12.6185 9.86826V7H17V10.6946C17 11.2335 16.8953 11.7006 16.7207 12.0958C16.5287 12.509 16.2668 12.8503 15.9352 13.1377C15.6035 13.4251 15.202 13.6407 14.7307 13.7844C14.2594 13.9281 13.7357 14 13.1771 14ZM17 5V7H20V5H17ZM12.6185 5H17V0H12.6185V5ZM3 5V7H0V5H3ZM3 5V0H7.41646V5H3Z" fill="#ADBCC7"/>
</svg>
